<?xml version="1.0" encoding="UTF-8" standalone="no"?>
<svg width="87px" height="43px" viewBox="0 0 87 43" version="1.1" xmlns="http://www.w3.org/2000/svg" xmlns:xlink="http://www.w3.org/1999/xlink" xmlns:sketch="http://www.bohemiancoding.com/sketch/ns">
    <!-- Generator: Sketch 3.5.2 (25235) - http://www.bohemiancoding.com/sketch -->
    <title>icon-24hour</title>
    <desc>Created with Sketch.</desc>
    <defs>
        <path id="path-1" d="M0,0.262 L86.769,0.262 L86.769,43 L0,43"></path>
    </defs>
    <g id="Home" stroke="none" stroke-width="1" fill="none" fill-rule="evenodd" sketch:type="MSPage">
        <g sketch:type="MSArtboardGroup" transform="translate(-468.000000, -656.000000)" id="Blurb">
            <g sketch:type="MSLayerGroup" transform="translate(191.000000, 646.000000)">
                <g id="icon-24hour" transform="translate(277.000000, 10.000000)">
                    <g id="Group-3">
                        <mask id="mask-2" sketch:name="Clip 2" fill="white">
                            <use xlink:href="#path-1"></use>
                        </mask>
                        <g id="Clip-2"></g>
                        <path d="M36.209,30.9863 C34.257,30.9863 32.46,32.1393 31.632,33.9253 C31.314,34.6053 31.153,35.3193 31.153,36.0453 C31.153,36.7483 31.301,37.4343 31.592,38.0883 C32.403,39.9173 34.216,41.0993 36.209,41.0993 C38.203,41.0993 40.017,39.9173 40.829,38.0863 C41.118,37.4313 41.265,36.7453 41.265,36.0453 C41.265,35.3193 41.104,34.6053 40.785,33.9243 C39.958,32.1393 38.161,30.9863 36.209,30.9863 M71.969,30.9863 C70.018,30.9863 68.22,32.1393 67.39,33.9243 C67.072,34.6113 66.911,35.3243 66.911,36.0453 C66.911,36.7423 67.059,37.4273 67.349,38.0853 C68.161,39.9173 69.975,41.0993 71.969,41.0993 C73.963,41.0993 75.776,39.9173 76.589,38.0863 C76.878,37.4313 77.025,36.7453 77.025,36.0453 C77.025,35.3193 76.863,34.6053 76.545,33.9243 C75.718,32.1393 73.921,30.9863 71.969,30.9863 M71.969,43.0003 C68.753,43.0003 65.902,40.7223 65.191,37.5843 L65.049,36.9623 L43.129,36.9623 L42.987,37.5843 C42.273,40.7223 39.423,43.0003 36.209,43.0003 C32.995,43.0003 30.145,40.7223 29.431,37.5843 L29.289,36.9623 L25.816,36.9623 C23.088,36.9623 20.867,34.7413 20.867,32.0113 L20.867,28.2193 L13.227,28.2193 C12.706,28.2193 12.282,27.7933 12.282,27.2693 C12.282,26.7463 12.706,26.3193 13.227,26.3193 L26.488,26.3193 C27.012,26.3193 27.439,26.7463 27.439,27.2693 C27.439,27.7933 27.012,28.2193 26.488,28.2193 L22.767,28.2193 L22.767,32.0113 C22.767,33.6933 24.135,35.0613 25.816,35.0613 L29.301,35.0613 L29.446,34.4453 C30.192,31.2903 32.974,29.0863 36.209,29.0863 C39.444,29.0863 42.226,31.2903 42.972,34.4453 L43.117,35.0613 L65.059,35.0613 L65.204,34.4453 C65.95,31.2903 68.732,29.0863 71.969,29.0863 C75.204,29.0863 77.985,31.2903 78.732,34.4453 L78.877,35.0613 L81.818,35.0613 C83.5,35.0613 84.868,33.6933 84.868,32.0113 L84.868,24.2633 L84.904,24.0473 L84.78,23.8023 C84.189,22.6773 83.594,21.6013 83.012,20.6013 L82.78,20.2033 L66.834,20.2033 C62.663,20.2033 61.15,16.6643 61.15,14.2863 L61.15,8.0493 C61.15,7.5253 61.576,7.0983 62.1,7.0983 C62.623,7.0983 63.05,7.5253 63.05,8.0493 L63.05,14.2863 C63.079,16.1463 64.087,18.3023 66.834,18.3023 L81.645,18.3023 L80.828,17.0623 C71.51,2.9073 63.269,2.1893 61.711,2.1893 L61.507,2.1943 C61.489,2.1923 61.308,2.1663 61.308,2.1663 L30.825,2.1663 L30.025,2.1623 L21.27,2.1623 C20.748,2.1623 20.323,1.7353 20.323,1.2113 C20.323,0.6873 20.748,0.2613 21.27,0.2613 L61.564,0.2663 L61.721,0.2873 L61.771,0.2873 C64.813,0.2873 75.552,1.9413 86.63,23.2313 C86.714,23.3923 86.749,23.5753 86.732,23.7593 L86.72,23.8823 L86.745,24.0023 C86.761,24.0783 86.769,24.1453 86.769,24.2093 L86.769,32.0113 C86.769,34.7413 84.548,36.9623 81.818,36.9623 L78.889,36.9623 L78.747,37.5843 C78.033,40.7223 75.183,43.0003 71.969,43.0003" id="Fill-1" fill="#A9D43A" sketch:type="MSShapeGroup" mask="url(#mask-2)"></path>
                    </g>
                    <path d="M6.8858,8.7207 C6.3628,8.7207 5.9358,8.2947 5.9358,7.7717 C5.9358,7.2467 6.3628,6.8207 6.8858,6.8207 L33.1528,6.8207 C33.6758,6.8207 34.1028,7.2467 34.1028,7.7717 C34.1028,8.2947 33.6758,8.7207 33.1528,8.7207 L6.8858,8.7207 Z" id="Fill-4" fill-opacity="0.829540308" fill="#12B5F3" sketch:type="MSShapeGroup"></path>
                    <path d="M0.9502,21.7207 C0.4272,21.7207 0.0002,21.2937 0.0002,20.7697 C0.0002,20.2457 0.4272,19.8207 0.9502,19.8207 L33.1522,19.8207 C33.6762,19.8207 34.1022,20.2457 34.1022,20.7697 C34.1022,21.2937 33.6762,21.7207 33.1522,21.7207 L0.9502,21.7207 Z" id="Fill-6" fill-opacity="0.829540308" fill="#12B5F3" sketch:type="MSShapeGroup"></path>
                    <path d="M14.5303,15.2207 C14.0113,15.2207 13.5893,14.7947 13.5893,14.2707 C13.5893,13.7457 14.0113,13.3207 14.5303,13.3207 L39.8183,13.3207 C40.3413,13.3207 40.7683,13.7457 40.7683,14.2707 C40.7683,14.7947 40.3413,15.2207 39.8183,15.2207 L14.5303,15.2207 Z" id="Fill-8" fill-opacity="0.829540308" fill="#12B5F3" sketch:type="MSShapeGroup"></path>
                </g>
            </g>
        </g>
    </g>
</svg>