<?xml version="1.0" encoding="UTF-8" standalone="no"?>
<svg width="18px" height="19px" viewBox="0 0 18 19" version="1.1" xmlns="http://www.w3.org/2000/svg" xmlns:xlink="http://www.w3.org/1999/xlink" xmlns:sketch="http://www.bohemiancoding.com/sketch/ns">
    <!-- Generator: Sketch 3.5.2 (25235) - http://www.bohemiancoding.com/sketch -->
    <title>icon-phone</title>
    <desc>Created with Sketch.</desc>
    <defs></defs>
    <g id="Home" stroke="none" stroke-width="1" fill="none" fill-rule="evenodd" sketch:type="MSPage">
        <g sketch:type="MSArtboardGroup" transform="translate(-1148.000000, -24.000000)" id="Menu-&amp;-tabs/Menu-bar" fill="#A9D43A">
            <g sketch:type="MSLayerGroup" transform="translate(-11.000000, 0.000000)">
                <g id="icon-phone" transform="translate(1159.000000, 23.000000)" sketch:type="MSShapeGroup">
                    <path d="M10.2565624,11.7271047 C12.6590659,9.20709206 13.5340386,7.60488586 12.8815068,6.92043799 C12.8518462,6.88932673 12.792526,6.82710513 12.7035444,6.73377133 C12.2586364,6.26710233 11.9546204,5.89377273 11.7914875,5.61377133 C11.6283545,5.33376993 11.5986944,4.91377413 11.7025063,4.35377133 C11.8063182,3.79376853 12.1696543,3.10933093 12.7925256,2.30043799 C13.089131,1.92710279 13.3634868,1.62377249 13.6156014,1.39043799 C13.8677159,1.15710349 14.1272417,1.03266029 14.3941866,1.01710466 C14.6611314,1.00154903 14.8835821,0.993771326 15.0615453,0.993771326 C15.2395085,0.993771326 15.4545442,1.09488143 15.7066588,1.29710466 C15.9587733,1.49932789 16.1367339,1.63932649 16.2405458,1.71710466 C16.3443576,1.79488283 16.5371482,1.98932533 16.8189233,2.30043799 C17.1006984,2.61155066 17.2564139,2.78266006 17.2860745,2.81377133 C17.9979273,3.56044173 17.9534372,5.06931553 17.1526027,7.34043799 C16.3517682,9.61156046 14.8391035,11.8982043 12.6145633,14.200438 C10.390023,16.533783 8.20259122,18.1282115 6.0522023,18.9837713 C3.90181338,19.8393312 2.47071395,19.8937751 1.75886106,19.1471047 C1.72920053,19.1159934 1.558655,18.944884 1.24721936,18.6337713 C0.935783726,18.3226587 0.750408152,18.1282162 0.691087078,18.050438 C0.631766005,17.9726598 0.498295591,17.785995 0.290671833,17.490438 C0.0830480756,17.194881 -0.0133472231,16.9537723 0.00148304526,16.7671047 C0.0163133137,16.5804371 0.0311433596,16.3471061 0.045973628,16.0671047 C0.0608038964,15.7871033 0.172029241,15.5148838 0.379652999,15.250438 C0.587276757,14.9859922 0.86904763,14.6982173 1.22497407,14.3871047 C1.84784534,13.8582131 2.36689695,13.4926612 2.78214447,13.290438 C3.19739198,13.0882148 3.59780322,13.0726594 3.9833902,13.2437713 C4.36897718,13.4148833 4.62850299,13.5548819 4.7619754,13.6637713 C4.89544782,13.7726608 5.18463371,14.0604357 5.62954177,14.5271047 C6.28207358,15.2115525 7.82439835,14.2782285 10.2565624,11.7271047 L10.2565624,11.7271047 Z" id="Icons/Phone"></path>
                </g>
            </g>
        </g>
    </g>
</svg>