<?xml version="1.0" encoding="UTF-8" standalone="no"?>
<svg width="63px" height="58px" viewBox="0 0 63 58" version="1.1" xmlns="http://www.w3.org/2000/svg" xmlns:xlink="http://www.w3.org/1999/xlink" xmlns:sketch="http://www.bohemiancoding.com/sketch/ns">
    <!-- Generator: Sketch 3.5.2 (25235) - http://www.bohemiancoding.com/sketch -->
    <title>icon-tech</title>
    <desc>Created with Sketch.</desc>
    <defs>
        <path id="path-1" d="M0,0.496 L62.566,0.496 L62.566,58 L0,58 L0,0.496 Z"></path>
    </defs>
    <g id="Home" stroke="none" stroke-width="1" fill="none" fill-rule="evenodd" sketch:type="MSPage">
        <g sketch:type="MSArtboardGroup" transform="translate(-191.000000, -648.000000)" id="Blurb">
            <g sketch:type="MSLayerGroup" transform="translate(191.000000, 646.000000)">
                <g id="icon-tech" transform="translate(0.000000, 2.000000)">
                    <path d="M12.686,37.688 L49.879,37.688 L49.879,0.496 L12.686,0.496 L12.686,37.688 Z M35.654,12.654 L35.654,2.396 L47.978,2.396 L47.978,35.787 L14.587,35.787 L14.587,2.396 L26.913,2.396 L26.913,12.654 L35.654,12.654 Z M28.814,2.396 L33.753,2.396 L33.753,10.753 L28.814,10.753 L28.814,2.396 Z" id="Fill-1" fill="#00AFF3" sketch:type="MSShapeGroup"></path>
                    <g id="Group-15">
                        <path d="M8.0137,51.9424 C7.1177,51.9424 6.3897,51.2134 6.3897,50.3184 C6.3897,49.4244 7.1177,48.6954 8.0137,48.6954 C8.9087,48.6954 9.6357,49.4244 9.6357,50.3184 C9.6357,51.2134 8.9087,51.9424 8.0137,51.9424" id="Fill-2" fill="#A9D43A" sketch:type="MSShapeGroup"></path>
                        <path d="M31.2822,51.9424 C30.3872,51.9424 29.6592,51.2134 29.6592,50.3184 C29.6592,49.4244 30.3872,48.6954 31.2822,48.6954 C32.1782,48.6954 32.9062,49.4244 32.9062,50.3184 C32.9062,51.2134 32.1782,51.9424 31.2822,51.9424" id="Fill-4" fill="#A9D43A" sketch:type="MSShapeGroup"></path>
                        <path d="M42.918,51.9424 C42.023,51.9424 41.295,51.2134 41.295,50.3184 C41.295,49.4244 42.023,48.6954 42.918,48.6954 C43.814,48.6954 44.542,49.4244 44.542,50.3184 C44.542,51.2134 43.814,51.9424 42.918,51.9424" id="Fill-6" fill="#A9D43A" sketch:type="MSShapeGroup"></path>
                        <path d="M19.6484,51.9424 C18.7524,51.9424 18.0244,51.2134 18.0244,50.3184 C18.0244,49.4244 18.7524,48.6954 19.6484,48.6954 C20.5434,48.6954 21.2714,49.4244 21.2714,50.3184 C21.2714,51.2134 20.5434,51.9424 19.6484,51.9424" id="Fill-8" fill="#A9D43A" sketch:type="MSShapeGroup"></path>
                        <path d="M54.5527,51.9424 C53.6577,51.9424 52.9307,51.2134 52.9307,50.3184 C52.9307,49.4244 53.6577,48.6954 54.5527,48.6954 C55.4477,48.6954 56.1767,49.4244 56.1767,50.3184 C56.1767,51.2134 55.4477,51.9424 54.5527,51.9424" id="Fill-10" fill="#A9D43A" sketch:type="MSShapeGroup"></path>
                        <g id="Group-14">
                            <mask id="mask-2" sketch:name="Clip 13" fill="white">
                                <use xlink:href="#path-1"></use>
                            </mask>
                            <g id="Clip-13"></g>
                            <path d="M6.9502,44.5381 C4.1662,44.5381 1.9002,46.8031 1.9002,49.5881 L1.9002,51.0501 C1.9002,53.8341 4.1662,56.0991 6.9502,56.0991 L55.6162,56.0991 C58.4002,56.0991 60.6662,53.8341 60.6662,51.0501 L60.6662,49.5881 C60.6662,46.8031 58.4002,44.5381 55.6162,44.5381 L6.9502,44.5381 Z M6.9502,58.0001 C3.1182,58.0001 0.0002,54.8821 0.0002,51.0501 L0.0002,49.5881 C0.0002,45.7561 3.1182,42.6381 6.9502,42.6381 L55.6162,42.6381 C59.4482,42.6381 62.5662,45.7561 62.5662,49.5881 L62.5662,51.0501 C62.5662,54.8821 59.4482,58.0001 55.6162,58.0001 L6.9502,58.0001 Z" id="Fill-12" fill="#A9D43A" sketch:type="MSShapeGroup" mask="url(#mask-2)"></path>
                        </g>
                    </g>
                </g>
            </g>
        </g>
    </g>
</svg>