<?xml version="1.0" encoding="UTF-8" standalone="no"?>
<svg width="24px" height="33px" viewBox="0 0 24 33" version="1.1" xmlns="http://www.w3.org/2000/svg" xmlns:xlink="http://www.w3.org/1999/xlink" xmlns:sketch="http://www.bohemiancoding.com/sketch/ns">
    <!-- Generator: Sketch 3.5.2 (25235) - http://www.bohemiancoding.com/sketch -->
    <title>icon-freight</title>
    <desc>Created with Sketch.</desc>
    <defs>
        <path id="path-1" d="M0,0.2635 L23.956,0.2635 L23.956,32.5 L0,32.5 L0,0.2635 Z"></path>
    </defs>
    <g id="Home" stroke="none" stroke-width="1" fill="none" fill-rule="evenodd" sketch:type="MSPage">
        <g sketch:type="MSArtboardGroup" transform="translate(-549.000000, -3398.000000)" id="Services">
            <g sketch:type="MSLayerGroup" transform="translate(0.000000, 3044.000000)">
                <g id="icon-freight" transform="translate(549.000000, 354.000000)">
                    <g id="Page-1">
                        <path d="M2.6394,0.26365 L21.3169,0.26365 L21.3169,5.79515 C21.0129,5.67065 20.6934,5.58815 20.3664,5.55015 L20.3664,1.21365 L3.5894,1.21365 L3.5894,5.55015 C3.2624,5.58815 2.9429,5.67065 2.6394,5.79515 L2.6394,0.26365 Z" id="Fill-1" fill="#A9D43A" sketch:type="MSShapeGroup"></path>
                        <path d="M4.00465,8.77515 C3.75165,8.77515 3.54615,8.98065 3.54615,9.23315 L3.54615,10.68465 L20.40915,10.68465 L20.40915,9.23315 C20.40915,8.98065 20.20415,8.77515 19.95165,8.77515 L4.00465,8.77515 Z M3.54615,17.24265 L20.40965,17.24265 L20.40965,11.63465 L3.54615,11.63465 L3.54615,17.24265 Z M0.70015,17.28565 L2.59565,17.28565 L2.59565,13.52165 L0.70015,13.52165 L0.70015,17.28565 Z M21.35965,17.28565 L23.25565,17.28565 L23.25565,13.52165 L21.35965,13.52165 L21.35965,17.28565 Z M20.40915,22.52665 L20.40915,18.19265 L3.54615,18.19265 L3.54615,22.52665 L2.59615,22.52665 L2.59615,17.98565 L0.35015,17.98565 C0.15715,17.98565 0.00015,17.82815 0.00015,17.63565 L0.00015,13.17115 C0.00015,12.97815 0.15715,12.82115 0.35015,12.82115 L2.59615,12.82115 L2.59615,9.23315 C2.59615,8.45665 3.22815,7.82515 4.00465,7.82515 L19.95165,7.82515 C20.72815,7.82515 21.35965,8.45665 21.35965,9.23315 L21.35965,12.82115 L23.60565,12.82115 C23.79865,12.82115 23.95565,12.97815 23.95565,13.17115 L23.95565,17.63565 C23.95565,17.82815 23.79865,17.98565 23.60565,17.98565 L21.35965,17.98565 L21.35965,22.52665 L20.40915,22.52665 Z" id="Fill-3" fill="#00AFF3" sketch:type="MSShapeGroup"></path>
                        <mask id="mask-2" sketch:name="Clip 6" fill="white">
                            <use xlink:href="#path-1"></use>
                        </mask>
                        <g id="Clip-6"></g>
                        <path d="M21.105,27.738 L2.8515,27.738 L2.8515,25.7965 L21.105,25.7965 L21.105,27.738 Z M19.0285,31.025 C19.0285,31.3145 18.793,31.55 18.5035,31.55 L17.0825,31.55 C16.793,31.55 16.558,31.3145 16.558,31.025 L16.5565,28.708 L19.0285,28.708 L19.0285,31.025 Z M6.873,31.55 L5.452,31.55 C5.1625,31.55 4.9275,31.3145 4.9275,31.026 L4.9235,28.716 L7.3955,28.716 L7.398,31.025 C7.398,31.3145 7.1625,31.55 6.873,31.55 L6.873,31.55 Z M21.58,24.846 L2.376,24.846 C2.114,24.846 1.901,25.059 1.901,25.321 L1.901,28.2135 C1.901,28.475 2.114,28.688 2.376,28.688 L3.977,28.688 L3.977,31.025 C3.977,31.8385 4.639,32.5 5.452,32.5 L6.873,32.5 C7.6865,32.5 8.348,31.8385 8.348,31.025 L8.343,28.688 L15.6075,28.688 L15.6075,31.025 C15.6075,31.8385 16.2695,32.5 17.0825,32.5 L18.5035,32.5 C19.317,32.5 19.979,31.8385 19.979,31.025 L19.9735,28.688 L21.58,28.688 C21.842,28.688 22.055,28.475 22.055,28.2135 L22.055,25.321 C22.055,25.059 21.842,24.846 21.58,24.846 L21.58,24.846 Z" id="Fill-5" fill="#00AFF3" sketch:type="MSShapeGroup" mask="url(#mask-2)"></path>
                        <path d="M7.8572,22.6836 C7.5952,22.6836 7.3822,22.4706 7.3822,22.2086 C7.3822,21.9461 7.5952,21.7336 7.8572,21.7336 L16.0987,21.7336 C16.3607,21.7336 16.5737,21.9461 16.5737,22.2086 C16.5737,22.4706 16.3607,22.6836 16.0987,22.6836 L7.8572,22.6836 Z" id="Fill-7" fill="#A9D43A" sketch:type="MSShapeGroup" mask="url(#mask-2)"></path>
                    </g>
                </g>
            </g>
        </g>
    </g>
</svg>