<?xml version="1.0" encoding="UTF-8" standalone="no"?>
<svg width="18px" height="30px" viewBox="0 0 18 30" version="1.1" xmlns="http://www.w3.org/2000/svg" xmlns:xlink="http://www.w3.org/1999/xlink" xmlns:sketch="http://www.bohemiancoding.com/sketch/ns">
    <!-- Generator: Sketch 3.5.2 (25235) - http://www.bohemiancoding.com/sketch -->
    <title>icon-weighing</title>
    <desc>Created with Sketch.</desc>
    <defs></defs>
    <g id="Home" stroke="none" stroke-width="1" fill="none" fill-rule="evenodd" sketch:type="MSPage">
        <g sketch:type="MSArtboardGroup" transform="translate(-181.000000, -3443.000000)" id="Services">
            <g sketch:type="MSLayerGroup" transform="translate(0.000000, 3044.000000)">
                <g id="icon-weighing" transform="translate(181.000000, 399.000000)" sketch:type="MSShapeGroup">
                    <path d="M13.2398353,3.4430517 C12.9917297,3.33472954 12.7392435,3.23516874 12.4831731,3.14516576 L12.4831731,1.45780918 C12.4831731,1.2240404 12.2932111,1.03368014 12.0594423,1.03368014 L5.77914651,1.03368014 C5.54577598,1.03368014 5.35581396,1.2240404 5.35581396,1.45780918 L5.35581396,3.14516576 C5.09974356,3.23516874 4.8468591,3.33472954 4.59915181,3.4430517 L4.59915181,1.45780918 C4.59915181,0.806681495 5.12841707,0.277017994 5.77914651,0.277017994 L12.0594423,0.277017994 C12.7101718,0.277017994 13.2398353,0.806681495 13.2398353,1.45780918 L13.2398353,3.4430517 Z" id="Fill-1" fill="#00AFF3"></path>
                    <path d="M9.15453669,14.1666269 L9.02709886,14.1833531 C8.96975183,14.1909198 8.94506075,14.1956987 8.91917494,14.1956987 C8.45402684,14.1956987 8.07569577,13.8173676 8.07569577,13.3522195 C8.07569577,12.8870714 8.45402684,12.5087403 8.91917494,12.5087403 C9.38392479,12.5087403 9.76225587,12.8870714 9.76225587,13.3522195 C9.76225587,13.4243015 9.74951208,13.5011625 9.72123681,13.5935549 L9.68021776,13.7301523 L11.2962888,15.9356234 L9.15453669,14.1666269 Z" id="Fill-3" fill="#A9D43A"></path>
                    <path d="M8.91945371,5.17716204 C4.41850868,5.17716204 0.756662145,8.83900858 0.756662145,13.3399536 C0.756662145,17.8408986 4.41850868,21.5023469 8.91945371,21.5023469 C13.4203987,21.5023469 17.0822453,17.8408986 17.0822453,13.3399536 C17.0822453,8.83900858 13.4203987,5.17716204 8.91945371,5.17716204 M8.82347709,29.4699993 C7.28785118,29.4699993 6.03856216,28.2207103 6.03856216,26.6854826 C6.03856216,26.4768032 6.20821377,26.3071515 6.41689323,26.3071515 C6.62557268,26.3071515 6.79562254,26.4768032 6.79562254,26.6854826 C6.79562254,27.8037496 7.70521009,28.7133372 8.82347709,28.7133372 C9.94174409,28.7133372 10.8513316,27.8037496 10.8513316,26.6854826 C10.8513316,25.5668174 9.94174409,24.6568316 8.82347709,24.6568316 C8.61479764,24.6568316 8.44514602,24.48718 8.44514602,24.2785005 L8.44514602,22.249053 L8.15363197,22.2239637 C3.5814014,21.8332871 0,17.9309016 0,13.3399536 C0,8.42164967 4.00114977,4.4204999 8.91945371,4.4204999 C13.8377577,4.4204999 17.8389074,8.42164967 17.8389074,13.3399536 C17.8389074,18.0276747 14.1758662,21.9364321 9.4996941,22.2383004 L9.20180816,22.2574161 L9.20180816,23.9168957 L9.44871897,23.9738444 C10.7199114,24.2673497 11.6079938,25.3820325 11.6079938,26.6854826 C11.6079938,28.2207103 10.3587048,29.4699993 8.82347709,29.4699993" id="Fill-5" fill="#00AFF3"></path>
                    <path d="M5.52407172,17.6150947 C6.32653184,18.2534786 7.2851033,18.6517219 8.29703936,18.7672124 L8.54116246,18.7946912 L8.54116246,17.5637213 C8.54116246,17.3550419 8.71081408,17.184992 8.91949354,17.184992 C9.12817299,17.184992 9.29782461,17.3550419 9.29782461,17.5637213 L9.29782461,18.7946912 L9.54154947,18.7672124 C12.0413222,18.4820702 14.0624067,16.4609858 14.3467523,13.9612131 L14.3746294,13.7174882 L13.1432613,13.7174882 C12.9345818,13.7174882 12.7649302,13.5478366 12.7649302,13.3391571 C12.7649302,13.1304777 12.9345818,12.960826 13.1432613,12.960826 L14.3746294,12.960826 L14.3467523,12.7171012 C14.2312618,11.7055634 13.8330186,10.7465937 13.1946347,9.94413355 L13.0417093,9.75218031 L12.173539,10.6203506 C12.1018552,10.6920343 12.0066751,10.7310622 11.9059195,10.7310622 C11.8047658,10.7310622 11.7095856,10.6916361 11.6383001,10.6199523 C11.5670146,10.549065 11.5275885,10.4542831 11.5275885,10.3527311 C11.5275885,10.2515773 11.5670146,10.1563972 11.6386983,10.0851117 L12.5064703,9.21733965 L12.3145171,9.06441425 C11.5128535,8.42642859 10.5538838,8.02818535 9.54154947,7.91269482 L9.29782461,7.88481779 L9.29782461,9.11578763 C9.29782461,9.32446708 9.12817299,9.4941187 8.91949354,9.4941187 C8.71081408,9.4941187 8.54116246,9.32446708 8.54116246,9.11578763 L8.54116246,7.88481779 L8.29703936,7.91269482 C7.2851033,8.02818535 6.3261336,8.42642859 5.52446997,9.06441425 L5.33211848,9.21733965 L6.20028873,10.0855099 C6.27157427,10.1563972 6.3113986,10.2515773 6.3113986,10.3527311 C6.3113986,10.4538849 6.27157427,10.5486668 6.19989049,10.6203506 C6.12940144,10.6916361 6.03422131,10.7310622 5.93266928,10.7310622 C5.83191374,10.7310622 5.73673361,10.6916361 5.66544807,10.6199523 L4.79727782,9.75218031 L4.64475066,9.94413355 C4.00636676,10.7461954 3.60772528,11.7051651 3.49223474,12.7171012 L3.46435772,12.960826 L4.6957258,12.960826 C4.90440525,12.960826 5.07405687,13.1304777 5.07405687,13.3391571 C5.07405687,13.5478366 4.90440525,13.7174882 4.6957258,13.7174882 L3.46435772,13.7174882 L3.49223474,13.9612131 C3.60732704,14.9731491 4.00557027,15.9325171 4.64435242,16.7349772 L4.79687958,16.9273287 L5.66544807,16.0583619 C5.73673361,15.9870764 5.83191374,15.9480485 5.93266928,15.9480485 C6.03382306,15.9480485 6.1290032,15.9870764 6.20028873,16.0583619 C6.34803697,16.2061102 6.34803697,16.4458526 6.20028873,16.5936008 L5.33211848,17.4625676 L5.52407172,17.6150947 Z M8.91949354,19.5617077 C5.48862807,19.5617077 2.69734125,16.7708191 2.69734125,13.3399536 C2.69734125,9.90908815 5.48862807,7.11780132 8.91949354,7.11780132 C12.350359,7.11780132 15.1416458,9.90908815 15.1416458,13.3399536 C15.1416458,16.7708191 12.350359,19.5617077 8.91949354,19.5617077 L8.91949354,19.5617077 Z" id="Fill-7" fill="#00AFF3"></path>
                </g>
            </g>
        </g>
    </g>
</svg>