<?xml version="1.0" encoding="UTF-8" standalone="no"?>
<svg width="25px" height="31px" viewBox="0 0 25 31" version="1.1" xmlns="http://www.w3.org/2000/svg" xmlns:xlink="http://www.w3.org/1999/xlink" xmlns:sketch="http://www.bohemiancoding.com/sketch/ns">
    <!-- Generator: Sketch 3.5.2 (25235) - http://www.bohemiancoding.com/sketch -->
    <title>icon-repacking</title>
    <desc>Created with Sketch.</desc>
    <defs></defs>
    <g id="Home" stroke="none" stroke-width="1" fill="none" fill-rule="evenodd" sketch:type="MSPage">
        <g sketch:type="MSArtboardGroup" transform="translate(-548.000000, -3441.000000)" id="Services" fill="#A9D43A">
            <g sketch:type="MSLayerGroup" transform="translate(0.000000, 3044.000000)">
                <g id="icon-repacking" transform="translate(548.000000, 397.000000)" sketch:type="MSShapeGroup">
                    <path d="M23.8529297,14.3780002 C23.811,13.0068093 23.3323768,11.9170828 23.0571573,11.397868 C22.8394796,11.0245151 22.6213559,10.7109343 22.3934188,10.4410675 C19.2205883,6.69371073 12.4641053,6.63081616 12.1790724,6.62992404 L5.17502569,6.62992404 C4.94173589,6.62992404 4.75126792,6.820392 4.75126792,7.0559121 L4.73654792,9.41557376 L0.76303827,5.13517428 L4.75572853,0.873509355 L4.75126792,3.32907408 C4.75126792,3.56280995 4.94173589,3.75327791 5.17502569,3.75327791 L12.2040518,3.75238579 C12.2120809,3.75193973 12.3441149,3.74569487 12.5733902,3.74569487 C14.0114902,3.74569487 18.9230657,3.97853861 21.7519834,6.97160661 C22.7627571,8.04081436 23.4099914,9.38524162 23.6852109,10.9634048 C24.1219044,13.0291123 23.8529297,14.3780002 23.8529297,14.3780002 L23.8529297,14.3780002 Z M6.75095851,16.4120375 L15.3545793,12.850688 L19.1327143,14.3699711 L10.1213939,18.1704092 L6.75095851,16.4120375 Z M9.68782284,29.5101669 L1.56460954,24.4736944 L1.56460954,14.6612488 L5.12283657,16.5181999 L5.12283657,19.4572946 L5.9703521,19.9171833 L5.9703521,16.9602462 L9.68782284,18.9001646 L9.68782284,29.5101669 Z M10.5870814,10.9339647 L14.23006,12.3988284 L5.77051686,15.8999597 L2.18508011,14.0296267 L10.5870814,10.9339647 Z M12.6648327,2.89550298 C12.3967501,2.89550298 12.2325997,2.90308602 12.1790724,2.90531632 L5.60235194,2.90531632 L5.60190588,1.1188428 C5.60190588,0.736568688 5.39716397,0.422541882 5.05726563,0.279356364 C4.93459891,0.229397554 4.80345704,0.203972088 4.66696243,0.203972088 C4.39486534,0.203972088 4.13615007,0.307012134 3.96486272,0.478745544 L0.317869588,4.37107212 C0.113573739,4.57358373 0.00072035564,4.84345051 -0.000171765969,5.13249792 C-0.000171765969,5.41574653 0.106882827,5.6869515 0.302257459,5.88411037 L3.95861787,9.82327333 C4.1165234,9.98430129 4.35918048,10.0766359 4.62414059,10.0766359 C4.76866429,10.0766359 4.91497224,10.0476419 5.04923654,9.99233038 C5.38779669,9.85360547 5.5903083,9.56901868 5.5903083,9.23179671 L5.58852405,7.47743956 L12.1772882,7.47743956 C12.2437513,7.47788563 18.8307312,7.53988808 21.749307,10.9915066 C22.9385051,12.3988284 23.3622629,14.2035904 23.0085366,16.357172 C22.9474263,16.7336473 22.8394796,17.0855893 22.6632856,17.4642949 C22.2966236,18.0945788 21.8469943,18.6815948 21.3228729,19.2146375 C21.1747807,19.3596073 21.0168752,19.5094837 20.839343,19.672742 C19.6960891,20.6701339 18.2704788,21.4021197 16.6035496,21.8477344 C16.4942647,21.8771745 16.4028222,21.947206 16.3461725,22.0448933 C16.2895227,22.1430267 16.2743567,22.2572183 16.3033506,22.3669492 C16.3533094,22.5516184 16.5214744,22.6814221 16.7123884,22.6814221 C16.7489654,22.6814221 16.7859884,22.6765154 16.8221194,22.6667021 C17.7664301,22.4142317 18.5773686,22.1109103 19.3017714,21.7388956 L19.8214322,21.4721512 L19.8214322,24.5553235 L10.5357844,29.5775221 L10.5357844,18.9153307 L19.8214322,14.9993629 L19.8214322,17.9545157 C20.1724821,17.663238 20.4597452,17.3715143 20.6689477,17.0918341 L20.6689477,14.0737867 L10.6000172,10.026231 L0.717094007,13.6669793 L0.717094007,24.9447346 L10.1120267,30.7702887 L20.6689477,25.0607104 L20.6689477,20.8797825 L20.8696751,20.722323 C20.9321236,20.6728103 20.9954642,20.6237436 21.074417,20.5581727 L21.1877164,20.4756514 C21.2617625,20.421678 21.3259953,20.3761798 21.3558814,20.3494162 C22.2823497,19.5032389 23.0094288,18.7034518 23.5513926,17.5490465 C24.4684937,15.6773753 24.6049883,14.3552511 24.6072186,14.3356244 C24.9667436,11.0120254 24.2115626,8.33699873 22.3621945,6.38369847 C19.2973108,3.14663521 14.1644891,2.89550298 12.6648327,2.89550298 Z" id="Fill-1"></path>
                </g>
            </g>
        </g>
    </g>
</svg>