<?xml version="1.0" encoding="UTF-8" standalone="no"?>
<svg width="60px" height="62px" viewBox="0 0 60 62" version="1.1" xmlns="http://www.w3.org/2000/svg" xmlns:xlink="http://www.w3.org/1999/xlink" xmlns:sketch="http://www.bohemiancoding.com/sketch/ns">
    <!-- Generator: Sketch 3.5.2 (25235) - http://www.bohemiancoding.com/sketch -->
    <title>icon-quailty</title>
    <desc>Created with Sketch.</desc>
    <defs>
        <path id="path-1" d="M0,0.791 L60.5,0.791 L60.5,62 L0,62 L0,0.791 Z"></path>
    </defs>
    <g id="Home" stroke="none" stroke-width="1" fill="none" fill-rule="evenodd" sketch:type="MSPage">
        <g sketch:type="MSArtboardGroup" transform="translate(-1050.000000, -646.000000)" id="Blurb">
            <g sketch:type="MSLayerGroup" transform="translate(191.000000, 646.000000)">
                <g id="icon-quailty" transform="translate(858.000000, 0.000000)">
                    <path d="M14.231,55.2695 L2.968,40.3205 L2.968,36.3955 L2.973,35.9955 L2.9,15.6145 C2.91,13.9865 4.066,12.6615 5.49,12.6615 C7.05,12.6715 7.882,14.2185 7.873,15.6585 L7.956,26.7915 C8.492,26.6885 9.038,26.6365 9.588,26.6365 C9.677,26.6365 9.766,26.6375 9.855,26.6405 L9.773,15.6575 C9.791,12.9285 7.914,10.7775 5.48,10.7615 C3.025,10.7615 1.015,12.9405 1,15.6125 L1.088,40.1765 C1.085,40.7455 1.21,41.1735 1.46,41.4515 L1.958,42.1595 L12.757,56.4715 L12.785,56.4945 L12.812,56.5475 L13.323,58.0525 C13.511,58.8895 13.682,60.1165 13.722,61.8735 L15.622,61.8735 C15.522,57.2195 14.556,55.6685 14.231,55.2695" id="Fill-1" fill="#A9D43A" sketch:type="MSShapeGroup"></path>
                    <g id="Group-5">
                        <mask id="mask-2" sketch:name="Clip 4" fill="white">
                            <use xlink:href="#path-1"></use>
                        </mask>
                        <g id="Clip-4"></g>
                        <path d="M28.1368,51.1533 L28.1238,50.9513 C27.3338,45.7863 22.9128,42.9813 22.3708,42.6513 C20.6638,41.4723 18.3928,39.3363 17.4948,38.4733 L16.9338,37.8393 L12.4518,32.9733 C11.4548,31.8913 10.0828,31.2703 8.6878,31.2703 C7.5978,31.2703 6.5748,31.6593 5.8098,32.3663 C3.9958,34.0383 4.0248,37.0313 5.8738,39.0393 L12.1498,45.8503 L13.5468,44.5603 L7.2718,37.7523 C6.7508,37.1863 6.4318,36.4753 6.3768,35.7503 C6.3158,34.9653 6.5788,34.2403 7.0978,33.7623 C7.6288,33.2733 8.2558,33.1703 8.6878,33.1703 C9.5408,33.1703 10.4258,33.5773 11.0568,34.2623 L15.5298,39.1513 L15.9428,39.6133 C16.0718,39.7393 19.1338,42.7373 21.3178,44.2333 L21.4128,44.2943 C21.5778,44.3913 25.4788,46.7163 26.2228,51.1023 L26.2348,51.1683 L26.2488,62.0003 L28.1488,61.9973 L28.1368,51.1533 Z" id="Fill-3" fill="#A9D43A" sketch:type="MSShapeGroup" mask="url(#mask-2)"></path>
                    </g>
                    <path d="M56.001,10.7612 C53.587,10.7782 51.709,12.9282 51.728,15.6682 L51.646,26.6402 C51.735,26.6372 51.823,26.6362 51.912,26.6362 C52.462,26.6362 53.009,26.6882 53.545,26.7922 L53.628,15.6692 C53.619,14.2192 54.451,12.6722 56.023,12.6612 C57.435,12.6612 58.591,13.9862 58.6,15.6222 L58.528,35.8812 L58.532,35.8832 L58.532,40.3212 L47.25,55.2942 C46.943,55.6702 45.979,57.2192 45.879,61.8732 L47.779,61.8732 C47.819,60.1162 47.99,58.8892 48.177,58.0522 L48.694,56.5352 L48.715,56.4942 L48.742,56.4722 L59.542,42.1592 L60.041,41.4512 C60.291,41.1742 60.416,40.7452 60.413,40.1692 L60.5,15.6202 C60.485,12.9412 58.476,10.7612 56.001,10.7612" id="Fill-6" fill="#A9D43A" sketch:type="MSShapeGroup"></path>
                    <path d="M54.691,32.3657 C53.925,31.6587 52.903,31.2697 51.812,31.2697 C50.417,31.2697 49.045,31.8907 48.048,32.9727 L43.567,37.8387 L43.005,38.4727 C42.108,39.3367 39.836,41.4717 38.089,42.6777 C37.587,42.9807 33.167,45.7867 32.384,50.8907 L32.366,51.0937 L32.352,61.9977 L34.252,61.9997 L34.266,51.1677 L34.277,51.1017 C35.021,46.7157 38.922,44.3907 39.066,44.3067 L39.156,44.2517 C41.367,42.7377 44.429,39.7397 44.524,39.6497 L44.976,39.1467 L49.446,34.2607 C50.075,33.5777 50.959,33.1707 51.812,33.1707 C52.245,33.1707 52.872,33.2727 53.403,33.7617 C53.922,34.2407 54.185,34.9657 54.124,35.7497 C54.068,36.4757 53.75,37.1867 53.229,37.7517 L46.954,44.5607 L48.351,45.8497 L54.626,39.0397 C56.476,37.0317 56.505,34.0377 54.691,32.3657" id="Fill-8" fill="#A9D43A" sketch:type="MSShapeGroup"></path>
                    <path d="M17.6446,8.5014 L30.3416,15.6114 L42.6746,8.7044 L30.1376,2.8794 L17.6446,8.5014 Z M16.7266,24.6064 L29.1666,31.7844 L29.1666,17.1314 L16.7266,10.1654 L16.7266,24.6064 Z M31.0666,17.3824 L31.0666,31.8234 L43.7016,24.6044 L43.7016,10.3074 L31.0666,17.3824 Z M14.8266,25.7044 L14.8266,7.6864 L30.1506,0.7914 L45.6016,7.9694 L45.6016,25.7064 L30.1416,34.5414 L14.8266,25.7044 Z" id="Fill-10" fill="#00AFF3" sketch:type="MSShapeGroup"></path>
                </g>
            </g>
        </g>
    </g>
</svg>