<?xml version="1.0" encoding="UTF-8" standalone="no"?>
<svg width="24px" height="24px" viewBox="0 0 24 24" version="1.1" xmlns="http://www.w3.org/2000/svg" xmlns:xlink="http://www.w3.org/1999/xlink" xmlns:sketch="http://www.bohemiancoding.com/sketch/ns">
    <!-- Generator: Sketch 3.5.2 (25235) - http://www.bohemiancoding.com/sketch -->
    <title>icon-24hour2</title>
    <desc>Created with Sketch.</desc>
    <defs>
        <path id="path-1" d="M0,0.1212 L23.368,0.1212 L23.368,24 L0,24"></path>
    </defs>
    <g id="Home" stroke="none" stroke-width="1" fill="none" fill-rule="evenodd" sketch:type="MSPage">
        <g sketch:type="MSArtboardGroup" transform="translate(-182.000000, -3355.000000)" id="Services">
            <g sketch:type="MSLayerGroup" transform="translate(0.000000, 3044.000000)">
                <g id="icon-24hour2" transform="translate(182.000000, 311.000000)">
                    <g id="Group-3">
                        <mask id="mask-2" sketch:name="Clip 2" fill="white">
                            <use xlink:href="#path-1"></use>
                        </mask>
                        <g id="Clip-2"></g>
                        <path d="M11.68204,24 C5.24044,24 4e-05,18.76 4e-05,12.3196 C4e-05,5.878 5.24044,0.6384 11.68204,0.6384 C13.33124,0.6384 14.93644,0.9824 16.45324,1.6612 L16.72004,1.7808 L17.44724,0.486 C17.57764,0.254 17.81364,0.1212 18.09444,0.1212 C18.13164,0.1212 18.16924,0.1236 18.20724,0.128 C18.57564,0.1704 18.90244,0.4272 18.98724,0.7392 L20.12724,5.4496 C20.26724,5.954 19.95684,6.49 19.45204,6.6312 L14.42724,8.2188 C14.39044,8.2304 14.35244,8.2368 14.31444,8.2368 C14.14804,8.2368 14.00244,8.1288 13.95204,7.9696 C13.92204,7.8728 13.93124,7.7696 13.97804,7.6796 C14.02524,7.59 14.10444,7.524 14.20124,7.4936 L19.43964,5.8392 L18.19804,0.7072 L17.01804,2.79 C15.39004,1.878 13.55244,1.3984 11.68204,1.3984 C5.65964,1.3984 0.76004,6.2976 0.76004,12.3196 C0.76004,18.3412 5.65964,23.24 11.68204,23.24 C17.70684,23.24 22.60764,18.3412 22.60764,12.3196 C22.60764,12.1096 22.77844,11.9392 22.98804,11.9392 C23.19764,11.9392 23.36804,12.1096 23.36804,12.3196 C23.36804,18.76 18.12564,24 11.68204,24" id="Fill-1" fill="#A9D43A" sketch:type="MSShapeGroup" mask="url(#mask-2)"></path>
                    </g>
                    <path d="M11.6828,20.3344 C7.2628,20.3344 3.6668,16.7392 3.6668,12.3196 C3.6668,7.8996 7.2628,4.304 11.6828,4.304 C12.9612,4.304 14.214,4.6088 15.3444,5.1908 L14.262,5.5384 C13.4344,5.2236 12.5676,5.064 11.6828,5.064 C7.682,5.064 4.4268,8.3188 4.4268,12.3196 C4.4268,16.32 7.682,19.5744 11.6828,19.5744 C13.3128,19.5744 14.852,19.0476 16.134,18.0504 C16.2012,17.998 16.2816,17.9704 16.3668,17.9704 C16.4852,17.9704 16.5948,18.0244 16.6672,18.1172 C16.796,18.2828 16.766,18.522 16.6004,18.6508 C15.1832,19.7524 13.4824,20.3344 11.6828,20.3344" id="Fill-4" fill="#00AFF3" sketch:type="MSShapeGroup"></path>
                    <path d="M12.1916,15.27112 L8.8768,15.27112 C8.8768,12.80472 11.2548,12.86112 11.2548,11.09912 C11.2548,10.63432 11.0548,10.24232 10.55,10.24232 C9.8696,10.24232 9.7572,10.85072 9.7572,11.42752 L8.8924,11.42752 C8.8924,10.29832 9.3572,9.60152 10.566,9.60152 C11.7276,9.60152 12.1676,10.29032 12.1676,11.11472 C12.1676,12.99672 10.326,13.11712 9.8936,14.50232 L12.1916,14.50232 L12.1916,15.27112 Z" id="Fill-6" fill="#00AFF3" sketch:type="MSShapeGroup"></path>
                    <path d="M15.3496,10.93088 L15.3336,10.93088 L14.0604,13.26928 L15.3496,13.26928 L15.3496,10.93088 Z M13.3236,13.21328 L15.2856,9.60168 L16.2144,9.60168 L16.2144,13.26928 L16.8308,13.26928 L16.8308,13.99768 L16.2144,13.99768 L16.2144,15.27128 L15.3496,15.27128 L15.3496,13.99768 L13.3236,13.99768 L13.3236,13.21328 Z" id="Fill-8" fill="#00AFF3" sketch:type="MSShapeGroup"></path>
                </g>
            </g>
        </g>
    </g>
</svg>