<?xml version="1.0" encoding="UTF-8" standalone="no"?>
<svg width="24px" height="24px" viewBox="0 0 24 24" version="1.1" xmlns="http://www.w3.org/2000/svg" xmlns:xlink="http://www.w3.org/1999/xlink" xmlns:sketch="http://www.bohemiancoding.com/sketch/ns">
    <!-- Generator: Sketch 3.5.2 (25235) - http://www.bohemiancoding.com/sketch -->
    <title>icon-sorting</title>
    <desc>Created with Sketch.</desc>
    <defs>
        <path id="path-1" d="M0,0.306193548 L23.4193548,0.306193548 L23.4193548,24 L0,24 L0,0.306193548 Z"></path>
    </defs>
    <g id="Home" stroke="none" stroke-width="1" fill="none" fill-rule="evenodd" sketch:type="MSPage">
        <g sketch:type="MSArtboardGroup" transform="translate(-550.000000, -3355.000000)" id="Services">
            <g sketch:type="MSLayerGroup" transform="translate(0.000000, 3044.000000)">
                <g id="icon-sorting" transform="translate(550.000000, 311.000000)">
                    <path d="M5.12167742,21.3946452 L0.761806452,15.6079355 L0.761806452,14.0885806 L0.763741935,13.9337419 L0.735483871,6.04432258 C0.739354839,5.41412903 1.18683871,4.90122581 1.73806452,4.90122581 C2.34193548,4.90509677 2.664,5.50393548 2.66051613,6.06135484 L2.69264516,10.3709032 C2.90012903,10.3310323 3.11148387,10.3109032 3.3243871,10.3109032 C3.35883871,10.3109032 3.39329032,10.3112903 3.42774194,10.3124516 L3.396,6.06096774 C3.40296774,5.00458065 2.6763871,4.17193548 1.73419355,4.16574194 C0.783870968,4.16574194 0.00580645161,5.00922581 0,6.04354839 L0.0340645161,15.5521935 C0.0329032258,15.7724516 0.0812903226,15.938129 0.178064516,16.0457419 L0.37083871,16.3198065 L4.55109677,21.8599355 L4.56193548,21.8688387 L4.5723871,21.8893548 L4.77019355,22.4719355 C4.84296774,22.7959355 4.90916129,23.2709032 4.92464516,23.9510323 L5.66012903,23.9510323 C5.62141935,22.1494839 5.24748387,21.5490968 5.12167742,21.3946452" id="Fill-1" fill="#00AFF3" sketch:type="MSShapeGroup"></path>
                    <g id="Group-5">
                        <mask id="mask-2" sketch:name="Clip 4" fill="white">
                            <use xlink:href="#path-1"></use>
                        </mask>
                        <g id="Clip-4"></g>
                        <path d="M10.8916645,19.8012774 L10.8866323,19.7230839 C10.5808258,17.723729 8.86947097,16.6379226 8.65966452,16.5101806 C7.99889032,16.0537935 7.11979355,15.2269548 6.77218065,14.8928903 L6.55501935,14.647471 L4.82005161,12.7638581 C4.43411613,12.3450194 3.90301935,12.1046323 3.36301935,12.1046323 C2.94108387,12.1046323 2.54508387,12.2552129 2.24895484,12.5288903 C1.54676129,13.1761161 1.5579871,14.3346968 2.27372903,15.1119871 L4.70314839,17.7485032 L5.24392258,17.2491484 L2.81489032,14.6137935 C2.6132129,14.3946968 2.48972903,14.119471 2.46843871,13.8388258 C2.44482581,13.5349548 2.54663226,13.2543097 2.74753548,13.0692774 C2.95308387,12.8799871 3.19579355,12.8401161 3.36301935,12.8401161 C3.6932129,12.8401161 4.03579355,12.9976645 4.28005161,13.2628258 L6.01153548,15.1553419 L6.17140645,15.3341806 C6.22134194,15.3829548 7.40663226,16.543471 8.25205161,17.1225677 L8.28882581,17.1461806 C8.35269677,17.183729 9.86276129,18.083729 10.1507613,19.7815355 L10.1554065,19.8070839 L10.1608258,24.0001161 L10.8963097,23.9989548 L10.8916645,19.8012774 Z" id="Fill-3" fill="#00AFF3" sketch:type="MSShapeGroup" mask="url(#mask-2)"></path>
                    </g>
                    <path d="M21.6778065,4.16562581 C20.7433548,4.17220645 20.0163871,5.00446452 20.0237419,6.06510968 L19.992,10.3123355 C20.0264516,10.3111742 20.0605161,10.3107871 20.0949677,10.3107871 C20.307871,10.3107871 20.5196129,10.3309161 20.7270968,10.3711742 L20.7592258,6.06549677 C20.7557419,5.50420645 21.0778065,4.90536774 21.6863226,4.90110968 C22.2329032,4.90110968 22.6803871,5.4140129 22.683871,6.04730323 L22.656,13.8894968 L22.6575484,13.890271 L22.6575484,15.6082065 L18.2903226,21.4042065 C18.1714839,21.5497548 17.7983226,22.1493677 17.7596129,23.9509161 L18.4950968,23.9509161 C18.5105806,23.2707871 18.5767742,22.7958194 18.6491613,22.4718194 L18.8492903,21.8845935 L18.8574194,21.8687226 L18.867871,21.8602065 L23.0485161,16.3196903 L23.2416774,16.0456258 C23.3384516,15.9384 23.3868387,15.7723355 23.3856774,15.5493677 L23.4193548,6.04652903 C23.4135484,5.00949677 22.635871,4.16562581 21.6778065,4.16562581" id="Fill-6" fill="#00AFF3" sketch:type="MSShapeGroup"></path>
                    <path d="M21.1707097,12.5286581 C20.8741935,12.2549806 20.4785806,12.1044 20.0562581,12.1044 C19.5162581,12.1044 18.9851613,12.3447871 18.5992258,12.7636258 L16.8646452,14.6472387 L16.6470968,14.8926581 C16.299871,15.2271097 15.4203871,16.0535613 14.744129,16.5204 C14.5498065,16.6376903 12.8388387,17.7238839 12.5357419,19.6996258 L12.5287742,19.7782065 L12.5233548,23.9991097 L13.2588387,23.9998839 L13.2642581,19.8068516 L13.2685161,19.7813032 C13.5565161,18.0834968 15.0665806,17.1834968 15.1223226,17.1509806 L15.1571613,17.1296903 C16.0130323,16.5436258 17.1983226,15.3831097 17.2350968,15.348271 L17.4100645,15.1535613 L19.1403871,13.2622065 C19.383871,12.9978194 19.7260645,12.840271 20.0562581,12.840271 C20.223871,12.840271 20.4665806,12.8797548 20.672129,13.0690452 C20.8730323,13.2544645 20.9748387,13.5351097 20.9512258,13.8385935 C20.9295484,14.1196258 20.8064516,14.3948516 20.6047742,14.6135613 L18.1757419,17.2493032 L18.7165161,17.748271 L21.1455484,15.1121419 C21.8616774,14.3348516 21.8729032,13.1758839 21.1707097,12.5286581" id="Fill-8" fill="#00AFF3" sketch:type="MSShapeGroup"></path>
                    <path d="M6.83016774,3.29086452 L11.7451355,6.04312258 L16.5192,3.36944516 L11.6661677,1.11460645 L6.83016774,3.29086452 Z M6.4748129,9.52505806 L11.2902968,12.3036387 L11.2902968,6.63150968 L6.4748129,3.93499355 L6.4748129,9.52505806 Z M12.0257806,6.72867097 L12.0257806,12.3187355 L16.9167484,9.52428387 L16.9167484,3.98996129 L12.0257806,6.72867097 Z M5.73932903,9.95009032 L5.73932903,2.97538065 L11.6712,0.306348387 L17.6522323,3.08492903 L17.6522323,9.95086452 L11.6677161,13.3708645 L5.73932903,9.95009032 Z" id="Fill-10" fill="#A9D43A" sketch:type="MSShapeGroup"></path>
                </g>
            </g>
        </g>
    </g>
</svg>