<?xml version="1.0" encoding="UTF-8" standalone="no"?>
<svg width="27px" height="24px" viewBox="0 0 27 24" version="1.1" xmlns="http://www.w3.org/2000/svg" xmlns:xlink="http://www.w3.org/1999/xlink" xmlns:sketch="http://www.bohemiancoding.com/sketch/ns">
    <!-- Generator: Sketch 3.5.2 (25235) - http://www.bohemiancoding.com/sketch -->
    <title>icon-overnight-shipping</title>
    <desc>Created with Sketch.</desc>
    <defs>
        <path id="path-1" d="M0,0.0293333333 L26.0754286,0.0293333333 L26.0754286,24 L0,24"></path>
    </defs>
    <g id="Home" stroke="none" stroke-width="1" fill="none" fill-rule="evenodd" sketch:type="MSPage">
        <g sketch:type="MSArtboardGroup" transform="translate(-180.000000, -3402.000000)" id="Services">
            <g sketch:type="MSLayerGroup" transform="translate(0.000000, 3044.000000)">
                <g id="icon-overnight-shipping" transform="translate(180.000000, 358.000000)">
                    <path d="M1.25352381,4.02921905 L4.91904762,5.9416 L13.7213333,2.29893333 L10.0059048,0.804838095 L1.25352381,4.02921905 Z M5.75638095,6.37893333 L9.52666667,8.34617143 L18.9144762,4.38693333 L14.6813333,2.68445714 L5.75638095,6.37893333 Z M0.724,14.7416 L9.15828571,19.9709333 L9.15828571,8.97017143 L5.22190476,6.91607619 L5.22190476,10.0810286 L4.49771429,9.68826667 L4.49771429,6.53817143 L0.724,4.56902857 L0.724,14.7416 Z M0.00019047619,15.1442667 L0.00019047619,3.71950476 L10.0169524,0.0296 L20.2264762,4.1343619 L20.2264762,7.36979048 L19.5026667,7.36979048 L19.5026667,4.92445714 L9.88209524,8.98198095 L9.88209524,20.0311238 L12.2668571,18.741981 C12.2878095,19.0036952 12.3209524,19.2604571 12.3662857,19.5111238 L9.52285714,21.0486476 L0.00019047619,15.1442667 Z" id="Fill-1" fill="#A9D43A" sketch:type="MSShapeGroup"></path>
                    <g id="Group-5">
                        <mask id="mask-2" sketch:name="Clip 4" fill="white">
                            <use xlink:href="#path-1"></use>
                        </mask>
                        <g id="Clip-4"></g>
                        <path d="M20.1476952,12.8839619 C17.2821714,12.8839619 14.9507429,15.2150095 14.9507429,18.0801524 C14.9507429,20.9452952 17.2821714,23.2759619 20.1476952,23.2759619 C23.0170286,23.2759619 25.3515048,20.9452952 25.3515048,18.0801524 C25.3515048,15.2150095 23.0170286,12.8839619 20.1476952,12.8839619 M20.1476952,24.0001524 C16.8829333,24.0001524 14.2269333,21.3441524 14.2269333,18.0801524 C14.2269333,14.8157714 16.8829333,12.1601524 20.1476952,12.1601524 C21.285981,12.1601524 22.3956952,12.4889143 23.3576,13.1110095 L23.5838857,13.2569143 L24.4901714,12.1769143 C24.5595048,12.0950095 24.6604571,12.0477714 24.7678857,12.0477714 C24.8280762,12.0477714 24.9168381,12.0622476 24.9998857,12.1323429 C25.1530286,12.2607238 25.1728381,12.4892952 25.0448381,12.6420571 L24.149219,13.7083429 L24.3461714,13.9060571 C25.461219,15.0249143 26.0756952,16.5072 26.0756952,18.0801524 C26.0756952,21.3441524 23.4162667,24.0001524 20.1476952,24.0001524" id="Fill-3" fill="#00AFF3" sketch:type="MSShapeGroup" mask="url(#mask-2)"></path>
                    </g>
                    <path d="M21.1142095,10.7857143 L21.1142095,9.93809524 L19.3001143,9.93809524 L19.3001143,10.7342857 L18.5763048,10.7342857 L18.5763048,9.93809524 L18.5713524,9.93809524 L18.5713524,9.21428571 L21.8376381,9.21428571 L21.838019,10.7857143 L21.1142095,10.7857143 Z" id="Fill-6" fill="#00AFF3" sketch:type="MSShapeGroup"></path>
                    <path d="M19.3623619,18.138019 L19.3703619,18.0248762 C19.3993143,17.6164952 19.7406476,17.2968762 20.1475048,17.2968762 C20.5802667,17.2968762 20.9326476,17.6481143 20.9326476,18.0797333 C20.9326476,18.5109714 20.5802667,18.8622095 20.1475048,18.8622095 C20.0393143,18.8622095 19.9322667,18.8389714 19.8286476,18.7928762 L19.7010286,18.7361143 L17.5166476,19.8759238 L19.3623619,18.138019 Z" id="Fill-8" fill="#00AFF3" sketch:type="MSShapeGroup"></path>
                    <path d="M20.148419,21.6235429 C19.5133714,21.6235429 18.9160381,21.462019 18.3716571,21.1431619 L18.2200381,21.054019 L19.013181,20.6578286 L19.0535619,20.6753524 C19.4028952,20.8239238 19.7716571,20.8997333 20.148419,20.8997333 C21.7061333,20.8997333 22.9735619,19.6345905 22.9735619,18.0799238 C22.9735619,16.6368762 21.8463238,15.4033524 20.4078476,15.2723048 L20.3209905,15.2643048 L20.3209905,14.542019 L20.4242286,14.550781 C22.2596571,14.7008762 23.6973714,16.2509714 23.6973714,18.0799238 C23.6973714,20.0338286 22.1053714,21.6235429 20.148419,21.6235429" id="Fill-10" fill="#00AFF3" sketch:type="MSShapeGroup"></path>
                </g>
            </g>
        </g>
    </g>
</svg>