<?xml version="1.0" encoding="UTF-8" standalone="no"?>
<svg width="49px" height="24px" viewBox="0 0 49 24" version="1.1" xmlns="http://www.w3.org/2000/svg" xmlns:xlink="http://www.w3.org/1999/xlink" xmlns:sketch="http://www.bohemiancoding.com/sketch/ns">
    <!-- Generator: Sketch 3.5.2 (25235) - http://www.bohemiancoding.com/sketch -->
    <title>icon-same-day</title>
    <desc>Created with Sketch.</desc>
    <defs>
        <path id="path-1" d="M0,0.146232558 L48.4292093,0.146232558 L48.4292093,24 L0,24"></path>
    </defs>
    <g id="Home" stroke="none" stroke-width="1" fill="none" fill-rule="evenodd" sketch:type="MSPage">
        <g sketch:type="MSArtboardGroup" transform="translate(-908.000000, -3355.000000)" id="Services">
            <g sketch:type="MSLayerGroup" transform="translate(0.000000, 3044.000000)">
                <g id="icon-same-day" transform="translate(908.000000, 311.000000)">
                    <g id="Group-3">
                        <mask id="mask-2" sketch:name="Clip 2" fill="white">
                            <use xlink:href="#path-1"></use>
                        </mask>
                        <g id="Clip-2"></g>
                        <path d="M20.2096744,17.2946791 C19.120186,17.2946791 18.1172093,17.938214 17.6550698,18.9350512 C17.4775814,19.314586 17.3877209,19.7130977 17.3877209,20.118307 C17.3877209,20.5106791 17.4703256,20.8935628 17.6327442,21.258586 C18.0853953,22.2794233 19.0973023,22.9391442 20.2096744,22.9391442 C21.3226047,22.9391442 22.3350698,22.2794233 22.7882791,21.2574698 C22.9495814,20.8918884 23.0316279,20.5090047 23.0316279,20.118307 C23.0316279,19.7130977 22.9417674,19.314586 22.7637209,18.934493 C22.3021395,17.938214 21.2991628,17.2946791 20.2096744,17.2946791 M40.1687442,17.2946791 C39.079814,17.2946791 38.0762791,17.938214 37.6130233,18.934493 C37.4355349,19.3179349 37.3456744,19.7158884 37.3456744,20.118307 C37.3456744,20.5073302 37.4282791,20.8896558 37.5901395,21.2569116 C38.0433488,22.2794233 39.055814,22.9391442 40.1687442,22.9391442 C41.2816744,22.9391442 42.2935814,22.2794233 42.7473488,21.2574698 C42.9086512,20.8918884 42.9906977,20.5090047 42.9906977,20.118307 C42.9906977,19.7130977 42.9002791,19.314586 42.7227907,18.934493 C42.2612093,17.938214 41.2582326,17.2946791 40.1687442,17.2946791 M40.1687442,24.0001674 C38.3737674,24.0001674 36.7825116,22.7287256 36.3856744,20.9772837 L36.3064186,20.6301209 L24.072,20.6301209 L23.9927442,20.9772837 C23.5942326,22.7287256 22.0035349,24.0001674 20.2096744,24.0001674 C18.415814,24.0001674 16.8251163,22.7287256 16.4266047,20.9772837 L16.3473488,20.6301209 L14.4089302,20.6301209 C12.8863256,20.6301209 11.6466977,19.390493 11.6466977,17.8667721 L11.6466977,15.750307 L7.38251163,15.750307 C7.09172093,15.750307 6.85506977,15.5125395 6.85506977,15.2200744 C6.85506977,14.9281674 7.09172093,14.6898419 7.38251163,14.6898419 L14.784,14.6898419 C15.0764651,14.6898419 15.3147907,14.9281674 15.3147907,15.2200744 C15.3147907,15.5125395 15.0764651,15.750307 14.784,15.750307 L12.7071628,15.750307 L12.7071628,17.8667721 C12.7071628,18.8055628 13.4706977,19.5690977 14.4089302,19.5690977 L16.3540465,19.5690977 L16.4349767,19.2252837 C16.8513488,17.4643535 18.404093,16.234214 20.2096744,16.234214 C22.0152558,16.234214 23.568,17.4643535 23.9843721,19.2252837 L24.0653023,19.5690977 L36.312,19.5690977 L36.3929302,19.2252837 C36.8093023,17.4643535 38.3620465,16.234214 40.1687442,16.234214 C41.9743256,16.234214 43.5265116,17.4643535 43.9434419,19.2252837 L44.0243721,19.5690977 L45.6658605,19.5690977 C46.6046512,19.5690977 47.368186,18.8055628 47.368186,17.8667721 L47.368186,13.542307 L47.3882791,13.4217488 L47.3190698,13.2850047 C46.9892093,12.6570977 46.6571163,12.0565395 46.3322791,11.4984 L46.2027907,11.2762605 L37.3026977,11.2762605 C34.9746977,11.2762605 34.1302326,9.30100465 34.1302326,7.97374884 L34.1302326,4.49263256 C34.1302326,4.20016744 34.368,3.96184186 34.6604651,3.96184186 C34.9523721,3.96184186 35.1906977,4.20016744 35.1906977,4.49263256 L35.1906977,7.97374884 C35.2068837,9.01188837 35.7694884,10.2152372 37.3026977,10.2152372 L45.5693023,10.2152372 L45.1133023,9.52314419 C39.9125581,1.62267907 35.3129302,1.22193488 34.4433488,1.22193488 L34.3294884,1.22472558 C34.3194419,1.2236093 34.2184186,1.20909767 34.2184186,1.20909767 L17.2046512,1.20909767 L16.7581395,1.20686512 L11.8716279,1.20686512 C11.5802791,1.20686512 11.3430698,0.968539535 11.3430698,0.676074419 C11.3430698,0.383609302 11.5802791,0.14584186 11.8716279,0.14584186 L34.3613023,0.148632558 L34.4489302,0.160353488 L34.4768372,0.160353488 C36.1746977,0.160353488 42.1685581,1.08351628 48.3516279,12.966307 C48.3985116,13.0561674 48.4180465,13.158307 48.4085581,13.2610047 L48.4018605,13.3296558 L48.415814,13.3966326 C48.4247442,13.4390512 48.4292093,13.4764465 48.4292093,13.5121674 L48.4292093,17.8667721 C48.4292093,19.390493 47.1895814,20.6301209 45.6658605,20.6301209 L44.0310698,20.6301209 L43.951814,20.9772837 C43.5533023,22.7287256 41.9626047,24.0001674 40.1687442,24.0001674" id="Fill-1" fill="#00AFF3" sketch:type="MSShapeGroup" mask="url(#mask-2)"></path>
                    </g>
                    <path d="M3.84323721,4.86736744 C3.55133023,4.86736744 3.31300465,4.6296 3.31300465,4.33769302 C3.31300465,4.04466977 3.55133023,3.80690233 3.84323721,3.80690233 L18.5038884,3.80690233 C18.7957953,3.80690233 19.0341209,4.04466977 19.0341209,4.33769302 C19.0341209,4.6296 18.7957953,4.86736744 18.5038884,4.86736744 L3.84323721,4.86736744 Z" id="Fill-4" fill="#A9D43A" sketch:type="MSShapeGroup"></path>
                    <path d="M0.530344186,12.1231814 C0.238437209,12.1231814 0.000111627907,11.8848558 0.000111627907,11.5923907 C0.000111627907,11.2999256 0.238437209,11.0627163 0.530344186,11.0627163 L18.5035535,11.0627163 C18.7960186,11.0627163 19.033786,11.2999256 19.033786,11.5923907 C19.033786,11.8848558 18.7960186,12.1231814 18.5035535,12.1231814 L0.530344186,12.1231814 Z" id="Fill-6" fill="#A9D43A" sketch:type="MSShapeGroup"></path>
                    <path d="M8.10993488,8.49527442 C7.82026047,8.49527442 7.58472558,8.25750698 7.58472558,7.96504186 C7.58472558,7.6720186 7.82026047,7.4348093 8.10993488,7.4348093 L22.2241674,7.4348093 C22.5160744,7.4348093 22.7544,7.6720186 22.7544,7.96504186 C22.7544,8.25750698 22.5160744,8.49527442 22.2241674,8.49527442 L8.10993488,8.49527442 Z" id="Fill-8" fill="#A9D43A" sketch:type="MSShapeGroup"></path>
                </g>
            </g>
        </g>
    </g>
</svg>