<?xml version="1.0" encoding="UTF-8" standalone="no"?>
<svg width="55px" height="63px" viewBox="0 0 55 63" version="1.1" xmlns="http://www.w3.org/2000/svg" xmlns:xlink="http://www.w3.org/1999/xlink" xmlns:sketch="http://www.bohemiancoding.com/sketch/ns">
    <!-- Generator: Sketch 3.5.2 (25235) - http://www.bohemiancoding.com/sketch -->
    <title>icon-location</title>
    <desc>Created with Sketch.</desc>
    <defs>
        <path id="path-1" d="M0,0.224 L54.236,0.224 L54.236,63 L0,63 L0,0.224 Z"></path>
    </defs>
    <g id="Home" stroke="none" stroke-width="1" fill="none" fill-rule="evenodd" sketch:type="MSPage">
        <g sketch:type="MSArtboardGroup" transform="translate(-767.000000, -646.000000)" id="Blurb">
            <g sketch:type="MSLayerGroup" transform="translate(191.000000, 646.000000)">
                <g id="icon-location" transform="translate(576.000000, 0.000000)">
                    <g id="Group-3">
                        <mask id="mask-2" sketch:name="Clip 2" fill="white">
                            <use xlink:href="#path-1"></use>
                        </mask>
                        <g id="Clip-2"></g>
                        <path d="M4.2002,24.8467 C2.9532,24.8467 1.9002,25.9007 1.9002,27.1467 L1.9002,31.9627 L11.5932,31.9667 L11.5932,25.7087 L11.6312,24.8727 L10.7992,24.8467 L4.2002,24.8467 Z M1.9002,58.7997 C1.9002,60.0467 2.9532,61.0997 4.2002,61.0997 L11.5932,61.0997 L11.5932,33.8677 L1.9002,33.8637 L1.9002,58.7997 Z M13.4932,61.0997 L23.9802,61.0997 L23.9802,52.7607 L13.4932,52.7607 L13.4932,61.0997 Z M44.7662,61.0997 L50.0362,61.0997 C51.2832,61.0997 52.3362,60.0467 52.3362,58.7997 L52.3362,36.9367 L44.7662,36.9367 L44.7662,61.0997 Z M4.2002,62.9997 C1.8842,62.9997 0.0002,61.1157 0.0002,58.7997 L0.0002,27.1467 C0.0002,24.8297 1.8842,22.9467 4.2002,22.9467 L21.3932,22.9467 C21.6602,23.5667 21.9432,24.2017 22.2382,24.8467 L13.4502,24.8467 L13.4892,25.7217 L13.4982,25.7887 L13.4932,31.9687 L19.7832,31.9717 L19.7822,33.8707 L13.4932,33.8687 L13.4932,50.8607 L23.9802,50.8607 L23.9802,41.6797 C23.9712,41.3747 24.0752,41.1177 24.2722,40.9327 L28.5102,36.9437 C28.8602,37.5587 29.1862,38.1267 29.4832,38.6367 L25.8812,42.0287 L25.8812,61.0997 L42.8662,61.0997 L42.8662,45.8577 L36.9422,45.8497 L36.9452,43.9497 L42.8662,43.9567 L42.8662,35.9867 C42.8662,35.4747 43.2722,35.0567 43.7792,35.0367 L52.3362,35.0357 L52.3362,27.1467 C52.3362,25.9007 51.2832,24.8467 50.0362,24.8467 L47.3732,24.8467 C47.6682,24.2017 47.9512,23.5677 48.2182,22.9467 L50.0362,22.9467 C52.3522,22.9467 54.2362,24.8297 54.2362,27.1467 L54.2362,58.7997 C54.2362,61.1157 52.3522,62.9997 50.0362,62.9997 L4.2002,62.9997 Z" id="Fill-1" fill="#A9D43A" sketch:type="MSShapeGroup" mask="url(#mask-2)"></path>
                    </g>
                    <path d="M34.8037,2.124 C29.2127,2.124 24.6637,6.672 24.6637,12.264 C24.6637,16.932 31.8917,30.055 34.1077,33.967 L34.8037,35.195 L35.4997,33.967 C37.7157,30.055 44.9447,16.932 44.9447,12.264 C44.9447,6.672 40.3957,2.124 34.8037,2.124 M34.8037,38.016 C34.4707,38.016 34.1577,37.838 33.9867,37.551 C29.8187,30.529 22.7637,17.303 22.7637,12.264 C22.7637,5.625 28.1647,0.224 34.8037,0.224 C41.4427,0.224 46.8447,5.625 46.8447,12.264 C46.8447,17.302 39.7897,30.529 35.6207,37.551 C35.4497,37.838 35.1377,38.016 34.8037,38.016" id="Fill-4" fill="#00AFF3" sketch:type="MSShapeGroup"></path>
                    <path d="M34.8037,8.4775 C32.7167,8.4775 31.0187,10.1755 31.0187,12.2635 C31.0187,14.3525 32.7167,16.0515 34.8037,16.0515 C36.8917,16.0515 38.5897,14.3525 38.5897,12.2635 C38.5897,10.1755 36.8917,8.4775 34.8037,8.4775 M34.8037,17.9525 C31.6687,17.9525 29.1177,15.4005 29.1177,12.2635 C29.1177,9.1285 31.6687,6.5775 34.8037,6.5775 C37.9387,6.5775 40.4907,9.1285 40.4907,12.2635 C40.4907,15.4005 37.9387,17.9525 34.8037,17.9525" id="Fill-6" fill="#00AFF3" sketch:type="MSShapeGroup"></path>
                </g>
            </g>
        </g>
    </g>
</svg>