<?xml version="1.0" encoding="UTF-8" standalone="no"?>
<svg width="30px" height="24px" viewBox="0 0 30 24" version="1.1" xmlns="http://www.w3.org/2000/svg" xmlns:xlink="http://www.w3.org/1999/xlink" xmlns:sketch="http://www.bohemiancoding.com/sketch/ns">
    <!-- Generator: Sketch 3.5.2 (25235) - http://www.bohemiancoding.com/sketch -->
    <title>icon-labeling</title>
    <desc>Created with Sketch.</desc>
    <defs>
        <path id="path-1" d="M0,0.347368421 L29.4256842,0.347368421 L29.4256842,23.5789474 L0,23.5789474 L0,0.347368421 Z"></path>
    </defs>
    <g id="Home" stroke="none" stroke-width="1" fill="none" fill-rule="evenodd" sketch:type="MSPage">
        <g sketch:type="MSArtboardGroup" transform="translate(-920.000000, -3402.000000)" id="Services">
            <g sketch:type="MSLayerGroup" transform="translate(0.000000, 3044.000000)">
                <g id="icon-labeling" transform="translate(920.000000, 358.000000)">
                    <g id="Group-3">
                        <mask id="mask-2" sketch:name="Clip 2" fill="white">
                            <use xlink:href="#path-1"></use>
                        </mask>
                        <g id="Clip-2"></g>
                        <path d="M1.37583158,4.76766316 L5.41035789,6.88261053 L15.1396211,2.85524211 L11.0330947,1.20429474 L1.37583158,4.76766316 Z M6.33625263,7.36513684 L10.5034105,9.53945263 L20.8789895,5.16387368 L16.2006737,3.28218947 L6.33625263,7.36513684 Z M0.793094737,16.6080842 L10.0958316,22.3882947 L10.0958316,10.2291368 L5.74551579,7.95924211 L5.74551579,11.4565053 L4.9472,11.0228211 L4.9472,7.54197895 L0.793094737,5.36387368 L0.793094737,16.6080842 Z M-0.000168421053,17.0535579 L-0.000168421053,4.42618947 L11.0457263,0.347031579 L22.3295158,4.88429474 L22.3295158,7.94071579 C22.0389895,8.01145263 21.7669895,8.13692632 21.5290947,8.30703158 L21.5290947,5.75755789 L10.8958316,10.2421895 L10.8958316,22.4552421 L15.5337263,19.9466105 C15.6314105,20.1958737 15.7366737,20.4430316 15.8478316,20.6864 L10.5000421,23.5790316 L-0.000168421053,17.0535579 Z" id="Fill-1" fill="#A9D43A" sketch:type="MSShapeGroup" mask="url(#mask-2)"></path>
                    </g>
                    <path d="M23.2006737,10.8675789 C20.2090947,10.8675789 17.7758316,13.3008421 17.7758316,16.2924211 C17.7758316,19.2831579 20.2090947,21.7168421 23.2006737,21.7168421 C26.1918316,21.7168421 28.6255158,19.2831579 28.6255158,16.2924211 C28.6255158,13.3008421 26.1918316,10.8675789 23.2006737,10.8675789 M23.2006737,22.5168421 C19.7682526,22.5168421 16.9758316,19.7244211 16.9758316,16.2924211 C16.9758316,12.86 19.7682526,10.0675789 23.2006737,10.0675789 C26.6330947,10.0675789 29.4255158,12.86 29.4255158,16.2924211 C29.4255158,19.7244211 26.6330947,22.5168421 23.2006737,22.5168421" id="Fill-4" fill="#00AFF3" sketch:type="MSShapeGroup"></path>
                    <path d="M20.5462737,16.5890105 L21.0506947,15.9679579 L22.8401684,17.4218526 L25.4182737,14.0896421 L26.0511158,14.5789053 L22.9715368,18.5591158 L20.5462737,16.5890105 Z" id="Fill-6" fill="#00AFF3" sketch:type="MSShapeGroup"></path>
                </g>
            </g>
        </g>
    </g>
</svg>